<svg width="170" height="170" viewBox="0 0 170 170" fill="none" xmlns="http://www.w3.org/2000/svg">
<path d="M71.059 76.5939C76.4553 76.5939 79.7776 79.6548 79.7776 84.9086L79.747 85.5939H64.6589C64.8474 89.0609 66.8857 91.2487 70.9622 91.2487C74.4119 91.2487 76.4553 89.7157 77.1126 87.1218C77.1432 87.0609 77.1432 87.0305 77.1432 86.9645H77.1737V86.934H79.5891C78.7432 90.9645 75.6043 93.2792 70.9622 93.2792C65.4742 93.2792 62.2435 90.1523 62.2435 84.9695C62.2435 79.7868 65.6933 76.5939 71.059 76.5939ZM70.9622 78.5635C67.1048 78.5635 65.0309 80.533 64.7506 83.7513H77.2655C76.9546 80.5635 74.8807 78.5635 70.9622 78.5635Z" fill="white"/>
<path d="M90.7689 76.5939C93.5001 76.6244 95.8798 77.6548 96.9499 79.7208V77.2538H99.2072V91.2234C99.2072 92.8782 98.9576 94.2843 98.4837 95.4112C97.4798 97.8477 95.253 99.0051 91.1765 99.0051C86.5344 99.0051 83.7726 97.6954 83.2375 94.5025H85.5255C86.0911 96.1929 87.7217 97.0355 91.1714 97.0355C95.4365 97.0355 96.9448 95.2843 96.9448 92.0051V89.2234C95.5027 91.3807 93.4288 92.5025 90.4173 92.5025C85.4592 92.5025 82.4171 89.6599 82.4171 84.5635C82.4171 79.467 85.7089 76.5635 90.7638 76.5939H90.7689ZM96.9805 85.1269V84.0964C96.9805 80.7208 95.1613 78.5635 91.0848 78.5635C87.3191 78.5635 84.8427 80.5635 84.8427 84.5635C84.8427 88.5635 87.4465 90.5025 90.7383 90.5025C94.8811 90.5025 96.9805 88.2234 96.9805 85.1269Z" fill="white"/>
<path d="M113.75 79.1878H110.897V77.2487H113.75V71.1574H116.008V77.2538H121.496V79.1929H116.008V88.1929C116.008 91.4112 118.8 91.4112 121.465 90.8173L122 92.5685C120.869 92.9442 119.896 93.132 118.642 93.132C114.943 93.132 113.872 91.1624 113.75 87.9442V79.1878Z" fill="white"/>
<path d="M53.6727 90.6904C52.4446 90.6904 51.451 89.7005 51.451 88.4772V71H49V92.8782H61.8206V90.6904H53.6676H53.6727Z" fill="white"/>
<path d="M105.837 71L103.727 72.203L104.787 74.0508L105.832 73.5025V92.7817H108.186V71H105.837Z" fill="white"/>
<path d="M103.151 72.5025L101.296 73.5381L102.407 75.3096L104.211 74.3503H104.216L103.151 72.5025Z" fill="#4BEA83"/>
<g opacity="0.65" filter="url(#filter0_f_1_968)">
<rect x="11" y="11" width="148" height="148" rx="15" stroke="url(#paint0_linear_1_968)" stroke-width="2"/>
</g>
<rect x="11" y="11" width="148" height="148" rx="15" stroke="url(#paint1_linear_1_968)" stroke-width="2"/>
<defs>
<filter id="filter0_f_1_968" x="0" y="0" width="170" height="170" filterUnits="userSpaceOnUse" color-interpolation-filters="sRGB">
<feFlood flood-opacity="0" result="BackgroundImageFix"/>
<feBlend mode="normal" in="SourceGraphic" in2="BackgroundImageFix" result="shape"/>
<feGaussianBlur stdDeviation="5" result="effect1_foregroundBlur_1_968"/>
</filter>
<linearGradient id="paint0_linear_1_968" x1="160" y1="84.4966" x2="10" y2="84.4966" gradientUnits="userSpaceOnUse">
<stop stop-color="white"/>
<stop offset="0.745" stop-color="#050505"/>
</linearGradient>
<linearGradient id="paint1_linear_1_968" x1="160" y1="84.4966" x2="10" y2="84.4966" gradientUnits="userSpaceOnUse">
<stop stop-color="white"/>
<stop offset="0.745" stop-color="#050505"/>
</linearGradient>
</defs>
</svg>
