<svg width="44" height="44" viewBox="0 0 44 44" fill="none" xmlns="http://www.w3.org/2000/svg">
<path d="M22 44C34.1503 44 44 34.1503 44 22C44 9.84974 34.1503 0 22 0C9.84974 0 0 9.84974 0 22C0 34.1503 9.84974 44 22 44Z" fill="url(#paint0_linear_25_802)"/>
<path d="M32.0511 11.6503L23.3391 18.1202L24.951 14.3027L32.053 11.6503H32.0511Z" fill="#E2761B"/>
<path d="M11.9397 11.6503L20.5822 18.1825L19.049 14.3027L11.9397 11.6503ZM28.9169 26.6491L26.596 30.2047L31.5602 31.5712L32.9872 26.7297L28.9151 26.651L28.9169 26.6491ZM11.0202 26.7279L12.438 31.5694L17.4022 30.2028L15.0813 26.6473L11.0183 26.7261L11.0202 26.7279Z" fill="#E4761B"/>
<path d="M17.1237 20.6426L15.7407 22.7346L20.6701 22.9544L20.4943 17.6568L17.1237 20.6426ZM26.8689 20.6426L23.4545 17.5963L23.3409 22.9544L28.2611 22.7346L26.8689 20.6426ZM17.4022 30.2047L20.3624 28.7594L17.8052 26.7627L17.4022 30.2047ZM23.6285 28.7594L26.596 30.2047L26.1838 26.7627L23.6266 28.7594H23.6285Z" fill="#E4761B"/>
<path d="M26.5978 30.2047L23.6303 28.7594L23.8666 30.6938L23.841 31.5089L26.5997 30.2047H26.5978ZM17.4022 30.2047L20.1609 31.5089L20.1425 30.6938L20.3624 28.7594L17.4022 30.2047Z" fill="#D7C1B3"/>
<path d="M20.2048 25.4841L17.7356 24.7569L19.4776 23.96L20.2048 25.4841ZM23.786 25.4841L24.5132 23.96L26.2644 24.7569L23.786 25.4841Z" fill="#233447"/>
<path d="M17.4022 30.2047L17.8216 26.6491L15.0813 26.7279L17.4022 30.2047ZM26.1765 26.6491L26.596 30.2047L28.9169 26.7279L26.1765 26.6491ZM28.2611 22.7364L23.3409 22.9562L23.797 25.4859L24.5242 23.9619L26.2754 24.7587L28.2629 22.7364H28.2611ZM17.7356 24.7587L19.4868 23.9619L20.2048 25.4859L20.6683 22.9562L15.7389 22.7364L17.7356 24.7587Z" fill="#CD6116"/>
<path d="M15.7389 22.7364L17.8052 26.7645L17.7356 24.7587L15.7389 22.7364ZM26.2736 24.7587L26.1857 26.7645L28.2611 22.7364L26.2736 24.7587ZM20.6683 22.9544L20.2048 25.4841L20.7818 28.4699L20.9137 24.5389L20.6683 22.9544ZM23.3391 22.9544L23.1027 24.5297L23.2072 28.4699L23.7933 25.4841L23.3372 22.9544H23.3391Z" fill="#E4751F"/>
<path d="M23.7952 25.4841L23.209 28.4699L23.6285 28.7594L26.1857 26.7627L26.2736 24.7569L23.7952 25.4841ZM17.7356 24.7587L17.8052 26.7645L20.3624 28.7612L20.7818 28.4718L20.2048 25.4859L17.7356 24.7587Z" fill="#F6851B"/>
<path d="M23.8391 31.5089L23.8648 30.6938L23.645 30.5014H20.344L20.1425 30.6938L20.1609 31.5089L17.4022 30.2047L18.3657 30.9923L20.3184 32.3497H23.6724L25.6343 30.9923L26.5978 30.2047L23.8391 31.5089Z" fill="#C0AD9E"/>
<path d="M23.6285 28.7594L23.209 28.4699L20.7837 28.4699L20.3642 28.7594L20.1444 30.6938L20.3459 30.5014H23.6468L23.8666 30.6938L23.6303 28.7594L23.6285 28.7594Z" fill="#161616"/>
<path d="M32.4193 18.5415L33.163 14.9695L32.0511 11.6503L23.6285 17.9022L26.8689 20.6426L31.4485 21.9817L32.4633 20.8002L32.0255 20.4851L32.7252 19.8458L32.183 19.4263L32.8828 18.8914L32.4193 18.5415ZM10.8351 14.9695L11.5789 18.5415L11.1062 18.8914L11.806 19.4263L11.2711 19.8458L11.9709 20.4851L11.5331 20.8002L12.5406 21.9817L17.1201 20.6426L20.3605 17.9022L11.9379 11.6503L10.8351 14.9695Z" fill="#763D16"/>
<path d="M31.4485 21.9817L26.8689 20.6426L28.2611 22.7346L26.1857 26.7627L28.9169 26.7279H32.989L31.4485 21.9817ZM17.1237 20.6426L12.5442 21.9817L11.0202 26.7279L15.0831 26.7279L17.807 26.7627L15.7407 22.7346L17.1237 20.6426ZM23.3391 22.9544L23.6285 17.9022L24.9602 14.3027H19.049L20.3624 17.9022L20.6683 22.9544L20.7727 24.548L20.7818 28.4699H23.2072L23.2255 24.548L23.3391 22.9544Z" fill="#F6851B"/>
<defs>
<linearGradient id="paint0_linear_25_802" x1="21.249" y1="-0.287594" x2="21.249" y2="43.6758" gradientUnits="userSpaceOnUse">
<stop stop-color="white"/>
<stop offset="1" stop-color="white"/>
</linearGradient>
</defs>
</svg>
