<svg width="44" height="44" viewBox="0 0 44 44" fill="none" xmlns="http://www.w3.org/2000/svg">
<path d="M22 44C34.1503 44 44 34.1503 44 22C44 9.84974 34.1503 0 22 0C9.84974 0 0 9.84974 0 22C0 34.1503 9.84974 44 22 44Z" fill="url(#paint0_linear_579_663)"/>
<path fill-rule="evenodd" clip-rule="evenodd" d="M9.94671 21.7619C16.358 18.9775 20.6261 17.1274 22.7694 16.2298C28.8693 13.6836 30.1515 13.244 30.9759 13.2256C31.159 13.2256 31.562 13.2623 31.8368 13.4821C32.0566 13.6653 32.1116 13.9034 32.1482 14.0866C32.1848 14.2698 32.2215 14.6545 32.1848 14.9475C31.8551 18.428 30.4263 26.8726 29.6936 30.756C29.3822 32.4047 28.7777 32.9542 28.1915 33.0092C26.9092 33.1191 25.9384 32.1665 24.7111 31.3605C22.7694 30.0966 21.6886 29.3089 19.8018 28.0633C17.622 26.6345 19.0325 25.8468 20.2781 24.5645C20.6078 24.2348 26.2315 19.1057 26.3414 18.6478C26.3597 18.5928 26.3597 18.373 26.2315 18.2631C26.1032 18.1532 25.9201 18.1898 25.7735 18.2265C25.572 18.2631 22.4946 20.3147 16.5046 24.363C15.6253 24.9675 14.8376 25.2606 14.1232 25.2423C13.3356 25.224 11.8335 24.8027 10.6978 24.4363C9.3239 23.9967 8.22481 23.7585 8.3164 22.9892C8.37136 22.5862 8.9209 22.1832 9.94671 21.7619Z" fill="white"/>
<defs>
<linearGradient id="paint0_linear_579_663" x1="22.348" y1="-0.287594" x2="22.348" y2="43.6758" gradientUnits="userSpaceOnUse">
<stop stop-color="#2AABEE"/>
<stop offset="1" stop-color="#229ED9"/>
</linearGradient>
</defs>
</svg>
