<svg width="1280" height="292" viewBox="0 0 1280 292" fill="none" xmlns="http://www.w3.org/2000/svg">
<g opacity="0.1">
<mask id="path-1-outside-1_579_700" maskUnits="userSpaceOnUse" x="-32" y="-1" width="1343" height="294" fill="green">
<rect fill="white" x="-32" y="-1" width="1343" height="294"/>
<path d="M83.3192 269.07C10.4292 269.07 -29.5308 232.81 -30.6408 158.44V5.99998H22.6392V159.18C22.6392 202.47 37.4392 218.38 83.6892 218.38C130.309 218.38 144.369 203.21 144.369 159.18V5.99998H197.279V158.81C197.279 234.29 153.619 269.07 83.3192 269.07ZM223.012 265V5.99998H268.152L399.502 173.61V5.99998H451.672V265H407.272L275.552 98.13V265H223.012ZM477.748 265V5.99998H531.028V265H477.748ZM757.049 256.86C738.179 265.37 717.089 269.07 692.669 269.07C611.639 269.07 556.879 219.12 556.879 135.13C556.879 50.77 612.379 0.449988 692.669 0.449988C774.439 0.449988 829.199 50.77 829.199 134.39C829.199 172.13 817.729 204.32 797.379 226.52L833.269 262.41L792.199 291.64L757.049 256.86ZM610.899 135.13C610.899 190.63 637.169 218.38 692.669 218.38C701.919 218.38 709.689 217.27 715.979 214.68L650.489 148.45L692.299 119.96L759.639 188.04C769.999 175.09 774.809 158.07 774.809 135.13C774.809 79.63 748.169 50.77 692.669 50.77C637.539 50.77 610.899 78.89 610.899 135.13ZM974.716 269.07C901.826 269.07 861.866 232.81 860.756 158.44V5.99998H914.036V159.18C914.036 202.47 928.836 218.38 975.086 218.38C1021.71 218.38 1035.77 203.21 1035.77 159.18V5.99998H1088.68V158.81C1088.68 234.29 1045.02 269.07 974.716 269.07ZM1114.41 265V5.99998H1309.77V57.06H1167.69V105.16H1303.85V155.85H1167.69V214.31H1309.77V265H1114.41Z"/>
</mask>
<path d="M-30.6408 158.44H-31.6408V158.447L-31.6407 158.455L-30.6408 158.44ZM-30.6408 5.99998V4.99998H-31.6408V5.99998H-30.6408ZM22.6392 5.99998H23.6392V4.99998H22.6392V5.99998ZM144.369 5.99998V4.99998H143.369V5.99998H144.369ZM197.279 5.99998H198.279V4.99998H197.279V5.99998ZM83.3192 268.07C47.0282 268.07 19.1029 259.044 0.112076 240.92C-18.8731 222.802 -29.0885 195.44 -29.6409 158.425L-31.6407 158.455C-31.0832 195.81 -20.7635 223.763 -1.26871 242.367C18.2205 260.966 46.7202 270.07 83.3192 270.07V268.07ZM-29.6408 158.44V5.99998H-31.6408V158.44H-29.6408ZM-30.6408 6.99998H22.6392V4.99998H-30.6408V6.99998ZM21.6392 5.99998V159.18H23.6392V5.99998H21.6392ZM21.6392 159.18C21.6392 180.887 25.3381 196.041 35.1168 205.724C44.8916 215.404 60.5024 219.38 83.6892 219.38V217.38C60.6259 217.38 45.7118 213.401 36.5241 204.303C27.3403 195.209 23.6392 180.763 23.6392 159.18H21.6392ZM83.6892 219.38C107.048 219.38 122.576 215.594 132.217 206C141.861 196.404 145.369 181.242 145.369 159.18H143.369C143.369 181.148 139.847 195.586 130.806 204.582C121.763 213.581 106.951 217.38 83.6892 217.38V219.38ZM145.369 159.18V5.99998H143.369V159.18H145.369ZM144.369 6.99998H197.279V4.99998H144.369V6.99998ZM196.279 5.99998V158.81H198.279V5.99998H196.279ZM196.279 158.81C196.279 196.356 185.426 223.62 165.985 241.509C146.529 259.412 118.318 268.07 83.3192 268.07V270.07C118.62 270.07 147.39 261.338 167.339 242.981C187.303 224.61 198.279 196.744 198.279 158.81H196.279ZM223.012 265H222.012V266H223.012V265ZM223.012 5.99998V4.99998H222.012V5.99998H223.012ZM268.152 5.99998L268.939 5.38316L268.638 4.99998H268.152V5.99998ZM399.502 173.61L398.714 174.227L400.502 176.507V173.61H399.502ZM399.502 5.99998V4.99998H398.502V5.99998H399.502ZM451.672 5.99998H452.672V4.99998H451.672V5.99998ZM451.672 265V266H452.672V265H451.672ZM407.272 265L406.487 265.62L406.787 266H407.272V265ZM275.552 98.13L276.336 97.5104L274.552 95.2492V98.13H275.552ZM275.552 265V266H276.552V265H275.552ZM224.012 265V5.99998H222.012V265H224.012ZM223.012 6.99998H268.152V4.99998H223.012V6.99998ZM267.364 6.61681L398.714 174.227L400.289 172.993L268.939 5.38316L267.364 6.61681ZM400.502 173.61V5.99998H398.502V173.61H400.502ZM399.502 6.99998H451.672V4.99998H399.502V6.99998ZM450.672 5.99998V265H452.672V5.99998H450.672ZM451.672 264H407.272V266H451.672V264ZM408.056 264.38L276.336 97.5104L274.767 98.7496L406.487 265.62L408.056 264.38ZM274.552 98.13V265H276.552V98.13H274.552ZM275.552 264H223.012V266H275.552V264ZM477.748 265H476.748V266H477.748V265ZM477.748 5.99998V4.99998H476.748V5.99998H477.748ZM531.028 5.99998H532.028V4.99998H531.028V5.99998ZM531.028 265V266H532.028V265H531.028ZM478.748 265V5.99998H476.748V265H478.748ZM477.748 6.99998H531.028V4.99998H477.748V6.99998ZM530.028 5.99998V265H532.028V5.99998H530.028ZM531.028 264H477.748V266H531.028V264ZM757.049 256.86L757.752 256.149L757.264 255.666L756.638 255.948L757.049 256.86ZM797.379 226.52L796.642 225.844L795.995 226.55L796.672 227.227L797.379 226.52ZM833.269 262.41L833.849 263.225L834.812 262.539L833.976 261.703L833.269 262.41ZM792.199 291.64L791.495 292.351L792.093 292.942L792.779 292.455L792.199 291.64ZM715.979 214.68L716.359 215.605L717.738 215.037L716.69 213.977L715.979 214.68ZM650.489 148.45L649.926 147.624L648.934 148.3L649.778 149.153L650.489 148.45ZM692.299 119.96L693.01 119.257L692.424 118.665L691.736 119.134L692.299 119.96ZM759.639 188.04L758.928 188.743L759.718 189.542L760.42 188.665L759.639 188.04ZM756.638 255.948C737.929 264.386 716.987 268.07 692.669 268.07V270.07C717.19 270.07 738.428 266.354 757.46 257.772L756.638 255.948ZM692.669 268.07C652.359 268.07 618.679 255.649 595.082 232.877C571.49 210.109 557.879 176.901 557.879 135.13H555.879C555.879 177.349 569.647 211.111 593.693 234.316C617.734 257.516 651.948 270.07 692.669 270.07V268.07ZM557.879 135.13C557.879 93.1765 571.674 59.7816 595.36 36.8738C619.052 13.9613 652.733 1.44999 692.669 1.44999V-0.550012C652.315 -0.550012 618.101 12.0987 593.97 35.4362C569.834 58.7784 555.879 92.7234 555.879 135.13H557.879ZM692.669 1.44999C733.349 1.44999 767.214 13.9639 790.904 36.7827C814.588 59.5967 828.199 92.8052 828.199 134.39H830.199C830.199 92.3548 816.429 58.5933 792.291 35.3423C768.158 12.0961 733.759 -0.550012 692.669 -0.550012V1.44999ZM828.199 134.39C828.199 171.934 816.789 203.865 796.642 225.844L798.116 227.196C818.668 204.775 830.199 172.326 830.199 134.39H828.199ZM796.672 227.227L832.562 263.117L833.976 261.703L798.086 225.813L796.672 227.227ZM832.689 261.595L791.619 290.825L792.779 292.455L833.849 263.225L832.689 261.595ZM792.902 290.929L757.752 256.149L756.345 257.571L791.495 292.351L792.902 290.929ZM609.899 135.13C609.899 163.021 616.499 184.132 630.255 198.265C644.016 212.403 664.765 219.38 692.669 219.38V217.38C665.073 217.38 644.937 210.482 631.688 196.87C618.434 183.253 611.899 162.739 611.899 135.13H609.899ZM692.669 219.38C701.987 219.38 709.902 218.264 716.359 215.605L715.598 213.755C709.476 216.276 701.851 217.38 692.669 217.38V219.38ZM716.69 213.977L651.2 147.747L649.778 149.153L715.268 215.383L716.69 213.977ZM651.052 149.276L692.862 120.786L691.736 119.134L649.926 147.624L651.052 149.276ZM691.588 120.663L758.928 188.743L760.35 187.337L693.01 119.257L691.588 120.663ZM760.42 188.665C770.969 175.478 775.809 158.207 775.809 135.13H773.809C773.809 157.933 769.028 174.702 758.858 187.415L760.42 188.665ZM775.809 135.13C775.809 107.236 769.115 85.852 755.272 71.4447C741.423 57.0298 720.583 49.77 692.669 49.77V51.77C720.254 51.77 740.485 58.9402 753.83 72.8303C767.183 86.7279 773.809 107.524 773.809 135.13H775.809ZM692.669 49.77C664.944 49.77 644.196 56.8422 630.39 71.166C616.591 85.4829 609.899 106.869 609.899 135.13H611.899C611.899 107.151 618.526 86.3571 631.83 72.5539C645.127 58.7578 665.263 51.77 692.669 51.77V49.77ZM860.756 158.44H859.756V158.447L859.756 158.455L860.756 158.44ZM860.756 5.99998V4.99998H859.756V5.99998H860.756ZM914.036 5.99998H915.036V4.99998H914.036V5.99998ZM1035.77 5.99998V4.99998H1034.77V5.99998H1035.77ZM1088.68 5.99998H1089.68V4.99998H1088.68V5.99998ZM974.716 268.07C938.425 268.07 910.499 259.044 891.509 240.92C872.523 222.802 862.308 195.44 861.756 158.425L859.756 158.455C860.313 195.81 870.633 223.763 890.128 242.367C909.617 260.966 938.117 270.07 974.716 270.07V268.07ZM861.756 158.44V5.99998H859.756V158.44H861.756ZM860.756 6.99998H914.036V4.99998H860.756V6.99998ZM913.036 5.99998V159.18H915.036V5.99998H913.036ZM913.036 159.18C913.036 180.887 916.735 196.041 926.513 205.724C936.288 215.404 951.899 219.38 975.086 219.38V217.38C952.022 217.38 937.108 213.401 927.921 204.303C918.737 195.209 915.036 180.763 915.036 159.18H913.036ZM975.086 219.38C998.444 219.38 1013.97 215.594 1023.61 206C1033.26 196.404 1036.77 181.242 1036.77 159.18H1034.77C1034.77 181.148 1031.24 195.586 1022.2 204.582C1013.16 213.581 998.347 217.38 975.086 217.38V219.38ZM1036.77 159.18V5.99998H1034.77V159.18H1036.77ZM1035.77 6.99998H1088.68V4.99998H1035.77V6.99998ZM1087.68 5.99998V158.81H1089.68V5.99998H1087.68ZM1087.68 158.81C1087.68 196.356 1076.82 223.62 1057.38 241.509C1037.93 259.412 1009.71 268.07 974.716 268.07V270.07C1010.02 270.07 1038.79 261.338 1058.74 242.981C1078.7 224.61 1089.68 196.744 1089.68 158.81H1087.68ZM1114.41 265H1113.41V266H1114.41V265ZM1114.41 5.99998V4.99998H1113.41V5.99998H1114.41ZM1309.77 5.99998H1310.77V4.99998H1309.77V5.99998ZM1309.77 57.06V58.06H1310.77V57.06H1309.77ZM1167.69 57.06V56.06H1166.69V57.06H1167.69ZM1167.69 105.16H1166.69V106.16H1167.69V105.16ZM1303.85 105.16H1304.85V104.16H1303.85V105.16ZM1303.85 155.85V156.85H1304.85V155.85H1303.85ZM1167.69 155.85V154.85H1166.69V155.85H1167.69ZM1167.69 214.31H1166.69V215.31H1167.69V214.31ZM1309.77 214.31H1310.77V213.31H1309.77V214.31ZM1309.77 265V266H1310.77V265H1309.77ZM1115.41 265V5.99998H1113.41V265H1115.41ZM1114.41 6.99998H1309.77V4.99998H1114.41V6.99998ZM1308.77 5.99998V57.06H1310.77V5.99998H1308.77ZM1309.77 56.06H1167.69V58.06H1309.77V56.06ZM1166.69 57.06V105.16H1168.69V57.06H1166.69ZM1167.69 106.16H1303.85V104.16H1167.69V106.16ZM1302.85 105.16V155.85H1304.85V105.16H1302.85ZM1303.85 154.85H1167.69V156.85H1303.85V154.85ZM1166.69 155.85V214.31H1168.69V155.85H1166.69ZM1167.69 215.31H1309.77V213.31H1167.69V215.31ZM1308.77 214.31V265H1310.77V214.31H1308.77ZM1309.77 264H1114.41V266H1309.77V264Z" fill="white" mask="url(#path-1-outside-1_579_700)"/>
</g>
</svg>
